#Comment line ignore any data following # character 
#Hierarchical Translation and Rotation (.htr) file 
[Header]	
#Header keywords are followed by a single value 
FileType HTR		#Single word string
DataType HTRS		#Translation followed by rotation and scale data
FileVersion 1		#integer
NumSegments 64		#integer
NumFrames 3		#integer
DataFrameRate 30		#integer, data frame rate in this file
EulerRotationOrder ZYX
CalibrationUnits mm
RotationUnits Degrees
GlobalAxisofGravity Y
BoneLengthAxis Y
ScaleFactor 1.00
[SegmentNames&Hierarchy]
#CHILD	PARENT
Pinger_Root GLOBAL
Pelvis Pinger_Root
L_Hip Pelvis
R_Hip Pelvis
Rear_Leg01 Pelvis
Spine1 Pelvis
L_Leg01 L_Hip
L_Leg02 L_Leg01
L_Leg03 L_Leg02
L_Foot L_Leg03
L_Toe1_01 L_Foot
L_Toe2_01 L_Foot
L_Toe3_01 L_Foot
planeAlignerLeft L_Foot
L_Toe1_02 L_Toe1_01
L_Toe1_03 L_Toe1_02
L_Toe2_02 L_Toe2_01
L_Toe2_03 L_Toe2_02
L_Toe3_02 L_Toe3_01
L_Toe3_03 L_Toe3_02
planeLockWeightLeft planeAlignerLeft
R_Leg01 R_Hip
R_Leg02 R_Leg01
R_Leg03 R_Leg02
R_Foot R_Leg03
planeAlignerRight R_Foot
R_Toe1_01 R_Foot
R_Toe2_01 R_Foot
R_Toe3_01 R_Foot
planeLockWeightRight planeAlignerRight
R_Toe1_02 R_Toe1_01
R_Toe1_03 R_Toe1_02
R_Toe2_02 R_Toe2_01
R_Toe2_03 R_Toe2_02
R_Toe3_02 R_Toe3_01
R_Toe3_03 R_Toe3_02
Rear_Leg02 Rear_Leg01
Rear_Leg03 Rear_Leg02
Rear_Leg04 Rear_Leg03
Rear_Foot Rear_Leg04
planeAlignerCenter Rear_Foot
Rear_Toe1_01 Rear_Foot
Rear_Toe2_01 Rear_Foot
Rear_Toe3_01 Rear_Foot
planeLockWeightCenter planeAlignerCenter
Rear_Toe1_02 Rear_Toe1_01
Rear_Toe1_03 Rear_Toe1_02
Rear_Toe2_02 Rear_Toe2_01
Rear_Toe2_03 Rear_Toe2_02
Rear_Toe3_02 Rear_Toe3_01
Rear_Toe3_03 Rear_Toe3_02
Back_Bone Spine1
Head Spine1
Motor_Bone Back_Bone
Ping_Mechanism Back_Bone
BN_LookIK Head
bottomMouth Head
L_Mouth01 Head
L_mouthFront Head
mouthGun Head
R_Mouth01 Head
R_mouthFront Head
TopMouth Head
weapon_bone Head
[BasePosition]
#SegmentName Tx, Ty, Tz, Rx, Ry, Rz, BoneLength
Pinger_Root 0.000000 0.000000 0.000000 -90.000000 0.000000 0.000000 10.000000 
Pelvis 0.000000 0.000000 0.000000 0.000000 0.000000 0.000000 10.000000 
L_Hip 0.000000 0.000000 0.000000 0.000000 0.000000 0.000000 10.000000 
R_Hip 0.000000 0.000000 0.000000 0.000000 0.000000 0.000000 10.000000 
Rear_Leg01 0.000000 0.000000 0.000000 0.000000 0.000000 0.000000 10.000000 
Spine1 0.000000 0.000000 0.000000 0.000000 0.000000 0.000000 10.000000 
L_Leg01 0.000000 0.000000 0.000000 0.000000 0.000000 0.000000 10.000000 
L_Leg02 0.000000 0.000000 0.000000 0.000000 0.000000 0.000000 10.000000 
L_Leg03 0.000000 0.000000 0.000000 0.000000 0.000000 0.000000 10.000000 
L_Foot 0.000000 0.000000 0.000000 0.000000 0.000000 0.000000 10.000000 
L_Toe1_01 0.000000 0.000000 0.000000 0.000000 0.000000 0.000000 10.000000 
L_Toe2_01 0.000000 0.000000 0.000000 0.000000 0.000000 0.000000 10.000000 
L_Toe3_01 0.000000 0.000000 0.000000 0.000000 0.000000 0.000000 10.000000 
planeAlignerLeft 0.000000 0.000000 0.000000 0.000000 0.000000 0.000000 10.000000 
L_Toe1_02 0.000000 0.000000 0.000000 0.000000 0.000000 0.000000 10.000000 
L_Toe1_03 0.000000 0.000000 0.000000 0.000000 0.000000 0.000000 10.000000 
L_Toe2_02 0.000000 0.000000 0.000000 0.000000 0.000000 0.000000 10.000000 
L_Toe2_03 0.000000 0.000000 0.000000 0.000000 0.000000 0.000000 10.000000 
L_Toe3_02 0.000000 0.000000 0.000000 0.000000 0.000000 0.000000 10.000000 
L_Toe3_03 0.000000 0.000000 0.000000 0.000000 0.000000 0.000000 10.000000 
planeLockWeightLeft 0.000000 0.000000 0.000000 0.000000 0.000000 0.000000 10.000000 
R_Leg01 0.000000 0.000000 0.000000 0.000000 0.000000 0.000000 10.000000 
R_Leg02 0.000000 0.000000 0.000000 0.000000 0.000000 0.000000 10.000000 
R_Leg03 0.000000 0.000000 0.000000 0.000000 0.000000 0.000000 10.000000 
R_Foot 0.000000 0.000000 0.000000 0.000000 0.000000 0.000000 10.000000 
planeAlignerRight 0.000000 0.000000 0.000000 0.000000 0.000000 0.000000 10.000000 
R_Toe1_01 0.000000 0.000000 0.000000 0.000000 0.000000 0.000000 10.000000 
R_Toe2_01 0.000000 0.000000 0.000000 0.000000 0.000000 0.000000 10.000000 
R_Toe3_01 0.000000 0.000000 0.000000 0.000000 0.000000 0.000000 10.000000 
planeLockWeightRight 0.000000 0.000000 0.000000 0.000000 0.000000 0.000000 10.000000 
R_Toe1_02 0.000000 0.000000 0.000000 0.000000 0.000000 0.000000 10.000000 
R_Toe1_03 0.000000 0.000000 0.000000 0.000000 0.000000 0.000000 10.000000 
R_Toe2_02 0.000000 0.000000 0.000000 0.000000 0.000000 0.000000 10.000000 
R_Toe2_03 0.000000 0.000000 0.000000 0.000000 0.000000 0.000000 10.000000 
R_Toe3_02 0.000000 0.000000 0.000000 0.000000 0.000000 0.000000 10.000000 
R_Toe3_03 0.000000 0.000000 0.000000 0.000000 0.000000 0.000000 10.000000 
Rear_Leg02 0.000000 0.000000 0.000000 0.000000 0.000000 0.000000 10.000000 
Rear_Leg03 0.000000 0.000000 0.000000 0.000000 0.000000 0.000000 10.000000 
Rear_Leg04 0.000000 0.000000 0.000000 0.000000 0.000000 0.000000 10.000000 
Rear_Foot 0.000000 0.000000 0.000000 0.000000 0.000000 0.000000 10.000000 
planeAlignerCenter 0.000000 0.000000 0.000000 0.000000 0.000000 0.000000 10.000000 
Rear_Toe1_01 0.000000 0.000000 0.000000 0.000000 0.000000 0.000000 10.000000 
Rear_Toe2_01 0.000000 0.000000 0.000000 0.000000 0.000000 0.000000 10.000000 
Rear_Toe3_01 0.000000 0.000000 0.000000 0.000000 0.000000 0.000000 10.000000 
planeLockWeightCenter 0.000000 0.000000 0.000000 0.000000 0.000000 0.000000 10.000000 
Rear_Toe1_02 0.000000 0.000000 0.000000 0.000000 0.000000 0.000000 10.000000 
Rear_Toe1_03 0.000000 0.000000 0.000000 0.000000 0.000000 0.000000 10.000000 
Rear_Toe2_02 0.000000 0.000000 0.000000 0.000000 0.000000 0.000000 10.000000 
Rear_Toe2_03 0.000000 0.000000 0.000000 0.000000 0.000000 0.000000 10.000000 
Rear_Toe3_02 0.000000 0.000000 0.000000 0.000000 0.000000 0.000000 10.000000 
Rear_Toe3_03 0.000000 0.000000 0.000000 0.000000 0.000000 0.000000 10.000000 
Back_Bone 0.000000 0.000000 0.000000 0.000000 0.000000 0.000000 10.000000 
Head 0.000000 0.000000 0.000000 0.000000 0.000000 0.000000 10.000000 
Motor_Bone 0.000000 0.000000 0.000000 0.000000 0.000000 0.000000 10.000000 
Ping_Mechanism 0.000000 0.000000 0.000000 0.000000 0.000000 0.000000 10.000000 
BN_LookIK 0.000000 0.000000 0.000000 0.000000 0.000000 0.000000 10.000000 
bottomMouth 0.000000 0.000000 0.000000 0.000000 0.000000 0.000000 10.000000 
L_Mouth01 0.000000 0.000000 0.000000 0.000000 0.000000 0.000000 10.000000 
L_mouthFront 0.000000 0.000000 0.000000 0.000000 0.000000 0.000000 10.000000 
mouthGun 0.000000 0.000000 0.000000 0.000000 0.000000 0.000000 10.000000 
R_Mouth01 0.000000 0.000000 0.000000 0.000000 0.000000 0.000000 10.000000 
R_mouthFront 0.000000 0.000000 0.000000 0.000000 0.000000 0.000000 10.000000 
TopMouth 0.000000 0.000000 0.000000 0.000000 0.000000 0.000000 10.000000 
weapon_bone 0.000000 0.000000 0.000000 0.000000 0.000000 0.000000 10.000000 
#Beginning of Data. Separated by tabs
#Fr	Tx	Ty	Tz	Rx	Ry	Rz	SF
[Pinger_Root]
11 0.000000 1296.296631 0.000000 -0.000075 -0.000000 -0.000020 1296.296631
12 0.000000 1425.926270 0.000000 -0.000075 -0.000000 -0.000020 1425.926270
13 0.000000 1555.555786 0.000000 -0.000075 -0.000000 -0.000020 1555.555908
[Pelvis]
11 -325.226776 1384.842529 5286.961426 79.031891 -78.114494 -83.956314 5474.990723
12 -319.169617 1391.231567 5273.267090 72.383461 -79.727066 -76.194992 5463.034180
13 -307.920593 1385.509399 5237.100098 65.951172 -80.221748 -68.398911 5426.018066
[L_Hip]
11 5.766392 125.831482 872.656799 -178.250168 -81.786369 87.376007 881.701050
12 5.766392 125.831482 872.656799 -178.250168 -81.786369 87.376007 881.701050
13 5.766392 125.831482 872.656799 -178.250168 -81.786369 87.376007 881.701050
[R_Hip]
11 5.765438 125.836372 -872.654907 -1.748770 81.786041 87.376961 881.699829
12 5.765438 125.836372 -872.654907 -1.748770 81.786041 87.376961 881.699829
13 5.765438 125.836372 -872.654907 -1.748770 81.786041 87.376961 881.699829
[Rear_Leg01]
11 -192.298416 -925.602966 -0.001907 171.128448 7.125147 -176.720917 945.367432
12 -192.298416 -925.602966 -0.001907 171.120758 6.204683 171.914764 945.367432
13 -192.298416 -925.602966 -0.001907 171.567169 6.095283 164.452682 945.367432
[Spine1]
11 290.604584 5.007505 0.000477 6.304855 -4.896690 43.385609 290.647736
12 290.604584 5.007505 0.000477 4.820208 -5.018113 41.694374 290.647736
13 290.604584 5.007505 0.000477 3.061577 -4.987318 40.716518 290.647736
[L_Leg01]
11 761.932007 -0.002384 -0.069261 70.816025 3.864861 -80.912819 761.932068
12 761.932007 -0.002384 -0.069261 71.380745 3.562663 -82.153427 761.932068
13 761.932007 -0.002384 -0.069261 72.276077 4.241563 -83.272400 761.932068
[L_Leg02]
11 1441.140503 -0.000954 -0.000715 -1.241837 0.858041 -90.967636 1441.140503
12 1441.140503 -0.000954 -0.000715 -1.240790 0.861855 -89.433144 1441.140503
13 1441.140503 -0.000954 -0.000715 -1.251634 0.854400 -88.525017 1441.140503
[L_Leg03]
11 1686.963989 -0.000715 -0.000954 0.108659 -0.011783 80.238762 1686.963989
12 1686.963989 -0.000715 -0.000954 0.115678 -0.010647 79.703026 1686.963989
13 1686.963989 -0.000715 -0.000954 0.111850 -0.007938 80.174126 1686.963989
[L_Foot]
11 3041.570068 -30.715107 11.297464 -11.413306 16.872028 85.164673 3041.746094
12 3041.570068 -30.715107 11.297464 -11.624633 16.824554 86.026169 3041.746094
13 3041.570068 -30.715107 11.297464 -11.969423 16.589628 86.447472 3041.746094
[L_Toe1_01]
11 -188.216690 -224.732346 -21.137953 89.335678 -1.868677 -162.487762 293.899567
12 -188.216690 -224.732346 -21.137953 89.305412 -1.855919 -161.677826 293.899567
13 -188.216690 -224.732346 -21.137953 89.275337 -1.842736 -160.867889 293.899567
[L_Toe2_01]
11 200.746536 -219.926590 148.838394 -77.646446 -13.444320 -44.894249 332.896027
12 200.746536 -219.926590 148.838394 -77.484428 -13.353902 -45.596081 332.896027
13 200.746536 -219.926590 148.838394 -77.323631 -13.261557 -46.297390 332.896027
[L_Toe3_01]
11 188.832520 -219.859131 -191.078659 -106.106750 16.724405 -46.813686 347.140900
12 188.832520 -219.859131 -191.078659 -106.313545 16.599476 -47.524700 347.140900
13 188.832520 -219.859131 -191.078659 -106.518547 16.472092 -48.234753 347.140900
[planeAlignerLeft]
11 -49.469460 -624.822876 0.073700 0.000000 -90.000000 -90.001900 626.778137
12 -52.539906 -633.395630 0.072937 0.000000 -90.000000 -90.001900 635.570984
13 -55.610359 -641.968323 0.072174 0.000000 -90.000000 -90.001900 644.372437
[L_Toe1_02]
11 413.761139 0.000477 0.000000 0.001400 -23.953726 0.001400 413.761139
12 413.761139 0.000477 0.000000 0.001398 -24.174086 0.001398 413.761139
13 413.761139 0.000477 0.000000 0.001396 -24.394444 0.001396 413.761139
[L_Toe1_03]
11 464.317322 0.000358 -0.000089 0.008443 74.016258 0.008443 464.317322
12 464.317322 0.000358 -0.000089 0.007904 72.921776 0.007904 464.317322
13 464.317322 0.000358 -0.000089 0.007278 71.438454 0.007278 464.317322
[L_Toe2_02]
11 342.235809 -0.000477 0.000238 0.001179 -78.754898 0.001179 342.235809
12 342.235809 -0.000477 0.000238 0.001179 -78.594139 0.001179 342.235809
13 342.235809 -0.000477 0.000238 0.001180 -78.433380 0.001180 342.235809
[L_Toe2_03]
11 420.210846 -0.000715 0.000000 -179.998032 72.350952 -179.994492 420.210846
12 420.210846 -0.000715 0.000000 -179.997940 72.737938 -179.994400 420.210846
13 420.210846 -0.000715 0.000000 -179.997849 73.124870 -179.994324 420.210846
[L_Toe3_02]
11 329.270111 0.000954 0.000000 0.001176 -82.140976 0.001176 329.270111
12 329.270111 0.000954 0.000000 0.001176 -82.195259 0.001176 329.270111
13 329.270111 0.000954 0.000000 0.001176 -81.989990 0.001176 329.270111
[L_Toe3_03]
11 439.137451 -0.001907 0.000954 -179.998306 70.887352 -179.994766 439.137451
12 439.137451 -0.001907 0.000954 -179.998306 70.984467 -179.994751 439.137451
13 439.137451 -0.001907 0.000954 -179.998184 71.624863 -179.994629 439.137451
[planeLockWeightLeft]
11 999.998779 0.098208 0.076197 -0.011826 -0.004376 0.005620 999.998840
12 999.998779 0.098202 0.076206 -0.011826 -0.004376 0.005620 999.998840
13 999.998779 0.098196 0.076214 -0.011826 -0.004376 0.005620 999.998840
[R_Leg01]
11 761.455627 -0.001907 -0.000358 83.914070 16.744171 76.500916 761.455688
12 761.455627 -0.001907 -0.000358 82.528221 4.379107 78.384766 761.455688
13 761.455627 -0.001907 -0.000358 81.105148 -0.844628 79.764832 761.455688
[R_Leg02]
11 1441.140625 0.000000 -0.000238 0.174791 -0.026089 -89.699821 1441.140625
12 1441.140625 0.000000 -0.000238 0.142016 -0.070257 -103.340866 1441.140625
13 1441.140625 0.000000 -0.000238 0.136911 -0.083055 -111.622795 1441.140625
[R_Leg03]
11 1686.963989 0.000954 0.001431 -0.110955 0.011531 80.180565 1686.963989
12 1686.963989 0.000954 0.001431 -0.114213 0.006574 79.002625 1686.963989
13 1686.963989 0.000954 0.001431 -0.107095 0.009281 81.179825 1686.963989
[R_Foot]
11 3041.560059 -30.531288 -11.204481 21.527706 -26.907522 84.015572 3041.734131
12 3041.560059 -30.531288 -11.204481 24.548330 -28.324415 81.534683 3041.734131
13 3041.560059 -30.531288 -11.204481 27.269045 -29.805813 77.913551 3041.734131
[planeAlignerRight]
11 -86.983688 -841.177063 17.945095 0.000000 -89.960434 -90.005180 845.852844
12 -111.543549 -840.336243 17.044142 0.000000 -89.960434 -90.005180 847.878235
13 -136.103409 -839.495544 16.143187 0.000000 -89.960434 -90.005180 850.610046
[R_Toe1_01]
11 -188.383347 -224.864899 21.052242 91.182213 0.727564 -143.687820 294.101532
12 -188.383347 -224.864899 21.052242 91.182999 0.717587 -143.180008 294.101532
13 -188.383347 -224.864899 21.052242 91.183685 0.707600 -142.672211 294.101532
[R_Toe2_01]
11 200.637817 -220.002121 -148.787384 -105.168205 8.883783 -61.002525 332.857574
12 200.637817 -220.002121 -148.787384 -105.255287 9.149098 -61.086891 332.857574
13 200.637817 -220.002121 -148.787384 -105.342812 9.414272 -61.171734 332.857574
[R_Toe3_01]
11 188.606735 -220.092957 191.126343 -69.582397 -12.830026 -63.467438 347.192566
12 188.606735 -220.092957 191.126343 -69.476120 -13.139932 -63.576984 347.192566
13 188.606735 -220.092957 191.126343 -69.369072 -13.449626 -63.687241 347.192566
[planeLockWeightRight]
11 647.999146 -0.000458 0.076447 -0.011823 -0.004379 -0.000027 647.999146
12 351.999481 -0.000458 0.076447 -0.011823 -0.004379 -0.000027 351.999512
13 103.999733 -0.000610 0.076370 -0.011823 -0.004379 -0.000027 103.999763
[R_Toe1_02]
11 413.762085 0.000477 -0.000119 0.001388 -25.470104 0.001388 413.762085
12 413.762085 0.000477 -0.000119 0.001394 -24.735418 0.001394 413.762085
13 413.762085 0.000477 -0.000119 0.001404 -23.380219 0.001404 413.762085
[R_Toe1_03]
11 464.317810 0.000000 0.001088 0.002995 43.865070 0.002995 464.317810
12 464.317810 0.000000 0.001088 0.000594 39.246830 -0.003276 464.317810
13 464.317810 0.000000 0.001088 0.000767 33.612770 -0.003200 464.317810
[R_Toe2_02]
11 342.234741 -0.000954 0.000238 -0.000581 -73.022202 -0.000581 342.234741
12 342.234741 -0.000954 0.000238 -0.001464 -73.863701 -0.001464 342.234741
13 342.234741 -0.000954 0.000238 -0.002344 -74.705185 -0.002344 342.234741
[R_Toe2_03]
11 420.210846 0.000715 -0.000268 0.012439 87.031784 0.010689 420.210846
12 420.210846 0.000715 -0.000268 0.000000 89.431793 -0.003502 420.210846
13 420.210846 0.000715 -0.000268 -179.968307 87.801262 -179.971802 420.210846
[R_Toe3_02]
11 329.270355 -0.000477 -0.000954 0.001182 -76.497383 0.001182 329.270355
12 329.270355 -0.000477 -0.000954 0.001181 -77.278351 0.001181 329.270355
13 329.270355 -0.000477 -0.000954 0.001180 -78.059212 0.001180 329.270355
[R_Toe3_03]
11 439.137939 0.000238 0.001431 -0.035744 88.062248 -0.032246 439.137939
12 439.137939 0.000238 0.001431 0.000000 89.471397 0.003503 439.137939
13 439.137939 0.000238 0.001431 -179.979736 87.007744 -179.976242 439.137939
[Rear_Leg02]
11 1162.777710 -0.029802 0.005960 10.789372 -13.575424 -129.800369 1162.777710
12 1162.777710 -0.029802 0.005960 8.450399 -12.362665 -140.224503 1162.777710
13 1162.777710 -0.029802 0.005960 6.532040 -10.030310 -150.087524 1162.777710
[Rear_Leg03]
11 607.192505 -0.013351 -0.073195 0.010249 -0.005579 73.471939 607.192505
12 607.192505 -0.013351 -0.073195 0.010308 -0.005468 72.240738 607.192505
13 607.192505 -0.013351 -0.073195 0.010326 -0.005434 71.867706 607.192505
[Rear_Leg04]
11 995.874512 -0.020504 -0.011921 -0.045032 -0.018452 78.855255 995.874573
12 995.874512 -0.020504 -0.011921 -0.041489 -0.015738 75.814720 995.874573
13 995.874512 -0.020504 -0.011921 -0.041356 -0.016084 74.858780 995.874573
[Rear_Foot]
11 3096.176270 -0.067472 -0.041425 -65.368202 71.037346 84.188454 3096.176270
12 3096.176270 -0.067472 -0.041425 -68.567764 73.884872 86.144379 3096.176270
13 3096.176270 -0.067472 -0.041425 -69.713936 77.198685 89.606148 3096.176270
[planeAlignerCenter]
11 1.036997 89.595566 -693.871582 0.000009 0.000003 -179.999985 699.632874
12 1.036377 129.602158 -650.095642 0.000009 0.000003 -179.999985 662.889221
13 1.037044 114.522163 -651.548645 0.000009 0.000003 -179.999985 661.537598
[Rear_Toe1_01]
11 0.653352 83.966492 -371.173737 0.060844 21.639200 90.026405 380.553192
12 0.653352 83.966492 -371.173737 0.057424 20.348127 90.029518 380.553192
13 0.653352 83.966492 -371.173737 0.056919 19.794102 90.027718 380.553192
[Rear_Toe2_01]
11 178.200760 -294.826019 -362.060547 1.108998 45.924828 -69.493607 499.765686
12 178.200760 -294.826019 -362.060547 1.551829 42.209290 -68.370544 499.765686
13 178.200760 -294.826019 -362.060547 1.332500 42.485661 -68.826447 499.765686
[Rear_Toe3_01]
11 -153.359680 -308.780914 -362.060852 -1.369652 45.939968 -113.019363 499.952881
12 -153.359680 -308.780914 -362.060852 -1.853377 42.246937 -114.262627 499.952881
13 -153.359680 -308.780914 -362.060852 -1.611112 42.512703 -113.758400 499.952881
[planeLockWeightCenter]
11 1000.000732 0.000445 0.076179 -0.011814 -0.004373 -0.000015 1000.000732
12 1000.000732 0.000441 0.076182 -0.011814 -0.004373 -0.000015 1000.000732
13 1000.000610 0.000437 0.076185 -0.011814 -0.004373 -0.000015 1000.000610
[Rear_Toe1_02]
11 379.707825 0.194073 0.000477 -0.000767 -33.624729 0.000838 379.707855
12 379.707825 0.194073 0.000477 -0.000767 -33.624729 0.000838 379.707855
13 379.707825 0.194073 0.000477 -0.000767 -33.624729 0.000838 379.707855
[Rear_Toe1_03]
11 500.129700 0.165701 0.000119 0.007016 70.741676 0.007016 500.129761
12 500.129700 0.165701 0.000119 -0.004504 65.558540 -0.000926 500.129761
13 500.129700 0.165701 0.000119 -0.004891 68.716400 -0.001333 500.129761
[Rear_Toe2_02]
11 340.494507 0.000238 -0.000954 -0.055278 -86.336815 0.054128 340.494507
12 340.494507 0.000238 -0.000954 -0.002323 -89.337074 -0.002323 340.494507
13 340.494507 0.000238 -0.000954 -0.002323 -88.650558 -0.002323 340.494507
[Rear_Toe2_03]
11 433.103577 0.000000 0.000238 179.989059 77.675629 179.989059 433.103546
12 433.103577 0.000000 0.000238 -179.995102 68.734352 -179.998672 433.103546
13 433.103577 0.000000 0.000238 -179.994766 70.935913 -179.998306 433.103546
[Rear_Toe3_02]
11 340.494141 -0.000358 -0.000477 0.001174 -86.235168 0.001174 340.494171
12 340.494141 -0.000358 -0.000477 0.001174 -89.239471 0.001174 340.494171
13 340.494141 -0.000358 -0.000477 0.001174 -88.546936 0.001174 340.494171
[Rear_Toe3_03]
11 433.103577 0.001431 -0.000238 -179.996277 77.955276 -179.992767 433.103546
12 433.103577 0.001431 -0.000238 -179.998611 69.100243 -179.995056 433.103546
13 433.103577 0.001431 -0.000238 -179.998245 71.270218 -179.994690 433.103546
[Back_Bone]
11 1312.175781 -701.934692 0.000954 -2.745125 -3.506787 -82.036652 1488.125488
12 1312.175781 -701.934692 0.000954 -2.553530 -3.578833 -81.561256 1488.125488
13 1312.175781 -701.934692 0.000954 -2.362533 -3.652460 -81.086090 1488.125488
[Head]
11 1406.159424 809.709290 0.001431 -3.874018 0.655632 -0.416398 1622.625488
12 1406.159424 809.709290 0.001431 -3.723207 0.332094 -0.033869 1622.625488
13 1406.159424 809.709290 0.001431 -3.472824 0.020403 1.216778 1622.625488
[Motor_Bone]
11 1158.364380 -417.834747 0.000477 -1.845117 -0.485017 -106.470413 1231.419434
12 1158.364380 -417.834747 0.000477 -1.729657 -0.306488 -106.290817 1231.419434
13 1158.364380 -417.834747 0.000477 -1.440879 0.000172 -105.983208 1231.419434
[Ping_Mechanism]
11 1172.867798 -391.353760 8.168498 0.000103 -0.000053 82.120995 1236.463989
12 1179.345947 -398.150024 13.892299 0.000103 -0.000053 82.120995 1244.818604
13 1182.718262 -401.240234 19.409151 0.000103 -0.000053 82.120995 1249.076904
[BN_LookIK]
11 193.241119 1380.371704 -0.002861 0.000000 89.965736 -31.038179 1393.832153
12 193.241119 1380.371704 -0.002861 0.000000 89.965736 -31.038179 1393.832153
13 193.241119 1380.371704 -0.002861 0.000000 89.965736 -31.038179 1393.832153
[bottomMouth]
11 -435.092926 615.759399 -0.000954 -0.000022 0.000016 73.527184 753.966492
12 -435.092926 615.759399 -0.000954 -0.000022 0.000016 73.527184 753.966492
13 -435.092926 615.759399 -0.000954 -0.000022 0.000016 73.527184 753.966492
[L_Mouth01]
11 554.440979 7.658243 838.222046 150.204178 23.759130 109.605339 1005.027161
12 554.440979 7.658243 838.222046 150.204178 23.759130 109.605339 1005.027161
13 554.440979 7.658243 838.222046 150.204178 23.759130 109.605339 1005.027161
[L_mouthFront]
11 551.629089 934.514771 339.150421 0.000081 2.804060 79.119301 1136.941284
12 551.629089 934.514771 339.150421 0.000081 2.804060 79.119301 1136.941284
13 551.629089 934.514771 339.150421 0.000081 2.804060 79.119301 1136.941284
[mouthGun]
11 55.332661 1627.420898 0.000000 0.000023 0.000009 -11.038128 1628.361328
12 55.332661 1627.420898 0.000000 0.000023 0.000009 -11.038128 1628.361328
13 55.332661 1627.420898 0.000000 0.000023 0.000009 -11.038128 1628.361328
[R_Mouth01]
11 554.442383 7.659197 -838.223938 29.795891 -23.759109 109.605331 1005.029541
12 554.442383 7.659197 -838.223938 29.795891 -23.759109 109.605331 1005.029541
13 554.442383 7.659197 -838.223938 29.795891 -23.759109 109.605331 1005.029541
[R_mouthFront]
11 551.629089 934.514282 -339.151367 0.000029 -2.803930 79.119133 1136.941162
12 551.629089 934.514282 -339.151367 0.000029 -2.803930 79.119133 1136.941162
13 551.629089 934.514282 -339.151367 0.000029 -2.803930 79.119133 1136.941162
[TopMouth]
11 461.269867 -56.106091 -0.008583 -0.000059 -0.000268 92.025169 464.669525
12 461.269867 -56.106091 -0.008583 -0.000059 -0.000268 92.025169 464.669525
13 461.269867 -56.106091 -0.008583 -0.000059 -0.000268 92.025169 464.669525
[weapon_bone]
11 -987.239868 1448.372803 0.001431 0.000000 89.965736 -31.038221 1752.833740
12 -987.239868 1448.372803 0.001431 0.000000 89.965736 -31.038221 1752.833740
13 -987.239868 1448.372803 0.001431 0.000000 89.965736 -31.038221 1752.833740
